<?xml version="1.0" encoding="utf-8"?>
<!-- Generator: Adobe Illustrator 17.0.2, SVG Export Plug-In . SVG Version: 6.00 Build 0)  -->
<!DOCTYPE svg PUBLIC "-//W3C//DTD SVG 1.1//EN" "http://www.w3.org/Graphics/SVG/1.1/DTD/svg11.dtd">
<svg version="1.1" id="Layer_1" xmlns="http://www.w3.org/2000/svg" xmlns:xlink="http://www.w3.org/1999/xlink" x="0px" y="0px"
	 width="155.882px" height="155.882px" viewBox="0 0 155.882 155.882" enable-background="new 0 0 155.882 155.882"
	 xml:space="preserve">
<path fill="#F8CC97" d="M77.941,0C34.895,0,0,34.895,0,77.941s34.895,77.941,77.941,77.941s77.941-34.895,77.941-77.941
	S120.987,0,77.941,0z M131.808,102.747c0.563,10.818-2.392,20.099-9.184,26.071c-5.958,5.228-14.065,7.203-23.144,6.306
	c-6.222,6.667-13.613,10.526-21.538,10.526c-7.953,0-15.365-3.886-21.594-10.595c-9.518,0.98-17.972-1.098-24.048-6.646
	c-6.639-6.055-9.42-15.316-8.704-26.029c-8.391-6.695-13.362-14.996-13.362-23.985c0-9.177,5.18-17.638,13.891-24.396
	c-0.765-11.179,2.162-20.808,9.142-26.933c5.958-5.228,14.065-7.203,23.144-6.306c6.222-6.667,13.606-10.526,21.531-10.526
	c8.273,0,15.962,4.206,22.352,11.423c9.212-0.793,17.374,1.328,23.29,6.723c6.639,6.055,9.42,15.323,8.704,26.029
	c8.391,6.695,13.362,14.996,13.362,23.985C145.65,87.556,140.491,95.996,131.808,102.747z"/>
<path fill="#FF95A2" d="M145.65,78.393c0-8.989-4.971-17.29-13.362-23.985c0.716-10.707-2.065-19.974-8.704-26.029
	c-5.916-5.395-14.078-7.515-23.29-6.723c-6.389-7.216-14.078-11.423-22.352-11.423c-7.926,0-15.309,3.859-21.531,10.526
	c-9.08-0.897-17.186,1.078-23.144,6.306c-6.98,6.125-9.907,15.754-9.142,26.933c-8.711,6.758-13.891,15.219-13.891,24.396
	c0,8.989,4.971,17.29,13.362,23.985c-0.716,10.713,2.065,19.974,8.704,26.029c6.076,5.548,14.53,7.627,24.048,6.646
	c6.229,6.709,13.64,10.595,21.594,10.595c7.926,0,15.316-3.859,21.538-10.526c9.08,0.897,17.186-1.078,23.144-6.306
	c6.792-5.972,9.747-15.253,9.184-26.071C140.491,95.996,145.65,87.556,145.65,78.393z M77.941,97.122
	c-10.593,0-19.181-8.588-19.181-19.181c0-10.593,8.588-19.181,19.181-19.181c10.593,0,19.181,8.588,19.181,19.181
	C97.122,88.534,88.534,97.122,77.941,97.122z"/>
<line fill="none" stroke="#FF6970" stroke-width="2.654" stroke-linecap="round" stroke-miterlimit="10" x1="24.385" y1="72.016" x2="38.159" y2="73.929"/>
<line fill="none" stroke="#FF6970" stroke-width="2.654" stroke-linecap="round" stroke-miterlimit="10" x1="109.49" y1="33.256" x2="113.442" y2="46.589"/>
<line fill="none" stroke="#FF6970" stroke-width="2.654" stroke-linecap="round" stroke-miterlimit="10" x1="85.957" y1="119.802" x2="95.449" y2="109.64"/>
<line fill="none" stroke="#FF6970" stroke-width="2.654" stroke-linecap="round" stroke-miterlimit="10" x1="126.678" y1="87.792" x2="125.595" y2="73.929"/>
<line fill="none" stroke="#FAE48C" stroke-width="2.654" stroke-linecap="round" stroke-miterlimit="10" x1="44.928" y1="38.966" x2="58.701" y2="40.879"/>
<line fill="none" stroke="#FAE48C" stroke-width="2.654" stroke-linecap="round" stroke-miterlimit="10" x1="53.454" y1="121.478" x2="50.175" y2="107.964"/>
<line fill="none" stroke="#FAE48C" stroke-width="2.654" stroke-linecap="round" stroke-miterlimit="10" x1="111.466" y1="119.381" x2="121.786" y2="110.061"/>
<line fill="none" stroke="#FAE48C" stroke-width="2.654" stroke-linecap="round" stroke-miterlimit="10" x1="79.6" y1="29.819" x2="92.314" y2="24.187"/>
<line fill="none" stroke="#B3E5D4" stroke-width="2.654" stroke-linecap="round" stroke-miterlimit="10" x1="68.532" y1="121.478" x2="72.484" y2="134.81"/>
<line fill="none" stroke="#B3E5D4" stroke-width="2.654" stroke-linecap="round" stroke-miterlimit="10" x1="50.382" y1="80.86" x2="39.474" y2="89.485"/>
<line fill="none" stroke="#B3E5D4" stroke-width="2.654" stroke-linecap="round" stroke-miterlimit="10" x1="88.153" y1="40.12" x2="93.252" y2="53.057"/>
<line fill="none" stroke="#B3E5D4" stroke-width="2.654" stroke-linecap="round" stroke-miterlimit="10" x1="43.422" y1="59.28" x2="56.928" y2="55.968"/>
<line fill="none" stroke="#B3E5D4" stroke-width="2.654" stroke-linecap="round" stroke-miterlimit="10" x1="104.521" y1="89.798" x2="118.412" y2="89.172"/>
<line fill="none" stroke="#FAE48C" stroke-width="2.654" stroke-linecap="round" stroke-miterlimit="10" x1="107.085" y1="64.911" x2="119.799" y2="59.28"/>
</svg>
