<?xml version="1.0" encoding="utf-8"?>
<!-- Generator: Adobe Illustrator 17.0.2, SVG Export Plug-In . SVG Version: 6.00 Build 0)  -->
<!DOCTYPE svg PUBLIC "-//W3C//DTD SVG 1.1//EN" "http://www.w3.org/Graphics/SVG/1.1/DTD/svg11.dtd">
<svg version="1.1" id="Layer_1" xmlns="http://www.w3.org/2000/svg" xmlns:xlink="http://www.w3.org/1999/xlink" x="0px" y="0px"
	 width="123.367px" height="123.129px" viewBox="0 0 123.367 123.129" enable-background="new 0 0 123.367 123.129"
	 xml:space="preserve">
<g>
	<path fill="#FAE48C" d="M3.009,28.327V7.743c0-0.551,0.182-1.02,0.545-1.406s0.82-0.58,1.371-0.58h0.316
		c0.363,0,0.705,0.021,1.026,0.062s0.998,0.127,2.03,0.259c1.032,0.132,1.977,0.318,2.833,0.558c0.857,0.24,1.714,0.565,2.571,0.975
		c2.23,1.078,3.973,2.625,5.229,4.639c1.174,2.015,1.767,4.329,1.778,6.941c0,2.155-0.365,4.006-1.094,5.553
		c-0.742,1.582-1.872,2.864-3.39,3.848c-1.988,1.336-4.524,2.003-7.607,2.003c-0.023,0-0.053,0-0.088,0
		c-0.817,0-1.55-0.035-2.197-0.105S5.2,30.36,4.873,30.313c-0.069-0.023-0.137-0.035-0.2-0.035c-0.064,0-0.119-0.012-0.165-0.035
		c-0.07,0-0.117-0.012-0.14-0.035c-0.406-0.117-0.734-0.346-0.984-0.686C3.134,29.183,3.009,28.784,3.009,28.327z M6.718,26.675
		c0.27,0.023,0.555,0.041,0.854,0.053c0.3,0.012,0.619,0.018,0.96,0.018c0.798,0,1.723-0.082,2.773-0.245
		c1.051-0.164,2.011-0.532,2.879-1.105c0.869-0.573,1.544-1.367,2.025-2.384c0.457-1.005,0.687-2.273,0.687-3.804
		c0-1.917-0.397-3.553-1.192-4.909c-0.796-1.344-2.006-2.414-3.632-3.208c-0.959-0.456-1.916-0.767-2.872-0.933
		C8.245,9.992,7.418,9.848,6.718,9.727V26.675z"/>
	<path fill="#FAE48C" d="M24.666,21.121c0.07-1.174,0.333-2.298,0.788-3.373c0.456-1.074,1.081-2.028,1.876-2.862
		c0.794-0.869,1.673-1.532,2.637-1.99s1.966-0.687,3.006-0.687c0.917,0,1.796,0.167,2.637,0.502s1.597,0.842,2.267,1.523
		c0.917,0.892,1.594,1.955,2.028,3.188c0.353,0.986,0.529,2.031,0.529,3.135c0,0.269-0.012,0.538-0.035,0.807
		c-0.095,1.193-0.371,2.325-0.829,3.396c-0.459,1.071-1.07,2.021-1.834,2.852c-0.8,0.866-1.688,1.527-2.663,1.983
		c-0.976,0.457-1.993,0.685-3.051,0.685c-0.911,0-1.783-0.172-2.618-0.517c-0.835-0.345-1.585-0.856-2.251-1.535
		c-0.887-0.865-1.547-1.912-1.979-3.139c-0.351-1.005-0.525-2.075-0.525-3.209C24.648,21.631,24.654,21.379,24.666,21.121z
		 M28.462,21.367c-0.012,0.141-0.012,0.282,0,0.423c0,0.729,0.1,1.423,0.3,2.081c0.246,0.776,0.61,1.411,1.092,1.905
		c0.599,0.623,1.321,0.935,2.167,0.935c0.505,0,1.016-0.132,1.532-0.396c0.517-0.265,0.992-0.662,1.428-1.191
		c0.457-0.529,0.818-1.143,1.083-1.842c0.264-0.7,0.42-1.42,0.467-2.161c0.012-0.117,0.018-0.235,0.018-0.353
		c-0.012-0.706-0.135-1.399-0.37-2.081c-0.281-0.799-0.681-1.469-1.197-2.01c-0.646-0.6-1.369-0.899-2.167-0.899
		c-1.058,0-2.003,0.529-2.837,1.587c-0.435,0.529-0.783,1.143-1.048,1.842C28.666,19.906,28.509,20.626,28.462,21.367z"/>
	<path fill="#FAE48C" d="M44.564,28.327v-13.5v-1.072c0-0.527,0.188-0.979,0.562-1.354s0.826-0.562,1.354-0.562
		s0.976,0.186,1.345,0.558c0.369,0.372,0.554,0.819,0.554,1.342v1.115c0.094-0.116,0.185-0.223,0.272-0.322
		c0.088-0.099,0.19-0.206,0.308-0.322c0.668-0.662,1.412-1.172,2.232-1.533c0.82-0.36,1.711-0.54,2.672-0.54
		c1.332,0,2.429,0.357,3.29,1.071c0.825,0.667,1.415,1.698,1.769,3.091c0.271,1.007,0.431,2.225,0.478,3.653
		c0.048,1.429,0.071,3.22,0.071,5.374v1.991c0,0.341,0.012,0.676,0.035,1.004c0,0.529-0.187,0.981-0.559,1.357
		c-0.373,0.376-0.819,0.564-1.34,0.564c-0.532,0-0.984-0.185-1.357-0.555c-0.372-0.37-0.559-0.825-0.559-1.366
		c-0.023-0.364-0.035-0.722-0.035-1.075V25.38c0-1.762-0.018-3.36-0.053-4.793c-0.035-1.434-0.152-2.567-0.352-3.401
		c-0.164-0.623-0.343-1.001-0.536-1.137s-0.478-0.203-0.853-0.203c-0.234,0-0.498,0.029-0.791,0.088
		c-0.293,0.059-0.601,0.203-0.923,0.432s-0.671,0.561-1.046,0.996s-0.756,1.01-1.143,1.727c-0.48,0.917-0.864,1.941-1.151,3.075
		s-0.431,2.229-0.431,3.286l-0.035,2.872c0,0.529-0.185,0.981-0.554,1.357c-0.369,0.376-0.817,0.564-1.345,0.564
		s-0.973-0.185-1.336-0.554S44.564,28.866,44.564,28.327z"/>
	<path fill="#FAE48C" d="M64.181,20.081v-0.07c0-0.504,0.019-1.102,0.055-1.793c0.036-0.691,0.08-1.362,0.13-2.013
		c0.05-0.65,0.094-1.204,0.13-1.661s0.055-0.698,0.055-0.721c0.048-0.456,0.248-0.839,0.602-1.148
		c0.354-0.31,0.775-0.465,1.266-0.465c0.536,0,0.989,0.179,1.358,0.535s0.554,0.786,0.554,1.289l-0.07,0.543
		c-0.047,0.316-0.091,0.687-0.132,1.114s-0.079,0.88-0.114,1.359c-0.035,0.479-0.064,0.971-0.088,1.473s-0.035,0.982-0.035,1.438
		v0.035v0.07c0,0.667,0.012,1.35,0.035,2.052s0.07,1.35,0.141,1.946c0.118,0.737,0.25,1.286,0.396,1.648
		c0.146,0.363,0.297,0.602,0.449,0.719c0.047,0.047,0.159,0.105,0.335,0.176c0.177,0.07,0.423,0.105,0.74,0.105
		c0.458,0,0.923-0.07,1.393-0.21c0.47-0.14,0.901-0.318,1.296-0.535c0.394-0.216,0.743-0.433,1.049-0.649
		c0.305-0.216,0.517-0.395,0.635-0.535c0.047-0.047,0.082-0.144,0.105-0.29s0.035-0.277,0.035-0.395l0.176-10.065
		c0-0.479,0.182-0.897,0.545-1.253s0.797-0.535,1.301-0.535c0.527,0,0.97,0.179,1.327,0.536s0.536,0.776,0.536,1.257v14.256
		c0,0.551-0.19,1.014-0.571,1.389s-0.853,0.562-1.415,0.562c-0.457,0-0.853-0.121-1.187-0.364c-0.334-0.243-0.571-0.56-0.712-0.95
		L74.394,29c-0.6,0.367-1.278,0.671-2.036,0.914s-1.561,0.364-2.406,0.364c-0.644,0-1.294-0.094-1.949-0.281
		c-0.69-0.188-1.275-0.492-1.755-0.915c-0.504-0.504-0.893-1.09-1.168-1.758s-0.479-1.398-0.614-2.189s-0.216-1.615-0.243-2.47
		C64.195,21.81,64.181,20.948,64.181,20.081z"/>
	<path fill="#FAE48C" d="M81.496,14.019c0-0.532,0.183-0.985,0.549-1.357c0.366-0.373,0.817-0.559,1.352-0.559h2.459v-3.65
		c0-0.524,0.18-0.967,0.541-1.328c0.36-0.361,0.819-0.542,1.375-0.542c0.532,0,0.981,0.181,1.349,0.542
		c0.366,0.361,0.55,0.804,0.55,1.328v3.65h2.459c0.546,0,1,0.187,1.359,0.559c0.361,0.372,0.541,0.825,0.541,1.357
		c0,0.556-0.18,1.017-0.541,1.384c-0.359,0.367-0.813,0.55-1.359,0.55h-2.459v12.433c0,0.526-0.184,0.967-0.55,1.324
		c-0.367,0.356-0.816,0.535-1.349,0.535c-0.556,0-1.015-0.178-1.375-0.535c-0.361-0.356-0.541-0.798-0.541-1.324V15.952h-2.459
		c-0.523,0-0.971-0.183-1.343-0.55S81.496,14.574,81.496,14.019z"/>
	<path fill="#FAE48C" d="M96.525,25.093c0-0.41,0.12-0.771,0.36-1.081s0.565-0.524,0.976-0.642c0.188-0.047,0.357-0.07,0.51-0.07
		c0.363,0,0.683,0.12,0.958,0.36s0.495,0.536,0.659,0.888c0.27,0.668,0.674,1.219,1.213,1.652s1.201,0.65,1.986,0.65
		c0.234,0,0.516-0.041,0.844-0.123s0.636-0.214,0.923-0.396s0.527-0.404,0.721-0.668s0.29-0.571,0.29-0.923
		c0-0.363-0.108-0.671-0.325-0.923s-0.486-0.469-0.809-0.65s-0.656-0.324-1.002-0.429c-0.347-0.104-0.643-0.192-0.888-0.266
		c-1.852-0.527-3.193-1.201-4.025-2.021c-0.961-0.891-1.441-2.045-1.441-3.463c0-1.723,0.768-3.029,2.303-3.92
		c0.715-0.41,1.45-0.662,2.206-0.756s1.339-0.141,1.749-0.141c2.309,0,3.955,0.645,4.939,1.934c0.598,0.797,0.896,1.688,0.896,2.672
		c0,0.457-0.144,0.847-0.431,1.169s-0.647,0.519-1.081,0.589c-0.094,0.012-0.188,0.018-0.281,0.018
		c-0.305,0-0.615-0.082-0.932-0.246c-0.422-0.223-0.703-0.674-0.844-1.354c-0.117-0.574-0.404-0.976-0.861-1.204
		s-0.984-0.343-1.582-0.343c-0.211,0-0.469,0.029-0.773,0.087s-0.595,0.147-0.87,0.269s-0.504,0.295-0.686,0.521
		c-0.182,0.226-0.272,0.489-0.272,0.79c0,0.335,0.115,0.616,0.346,0.842c0.23,0.226,0.496,0.417,0.797,0.573
		c0.302,0.156,0.608,0.274,0.922,0.354c0.314,0.08,0.567,0.145,0.762,0.194c2.034,0.555,3.501,1.275,4.401,2.161
		s1.351,2.079,1.351,3.579c0,1.465-0.604,2.736-1.811,3.814c-0.574,0.551-1.251,0.97-2.03,1.257s-1.614,0.431-2.505,0.431
		c-1.219,0-2.229-0.217-3.032-0.65s-1.433-0.867-1.89-1.301c-0.527-0.48-0.949-1.02-1.266-1.617S96.525,25.573,96.525,25.093z"/>
	<path fill="#FAE48C" d="M46.375,66.458c0-1.949,0.638-3.599,1.912-4.95c0.413-0.435,0.868-0.825,1.364-1.171
		c0.495-0.347,0.997-0.667,1.505-0.96c-0.188-0.27-0.36-0.517-0.519-0.74c-0.158-0.223-0.296-0.47-0.413-0.74
		c-0.668-1.174-1.002-2.301-1.002-3.382c0-1.55,0.608-2.878,1.825-3.985c0.55-0.501,1.167-0.889,1.852-1.162
		c0.685-0.274,1.372-0.411,2.062-0.411c0.714,0,1.422,0.146,2.124,0.437c0.701,0.292,1.327,0.699,1.878,1.223
		c0.55,0.548,0.979,1.148,1.29,1.801c0.31,0.652,0.465,1.328,0.465,2.027c0,0.481-0.047,1.01-0.141,1.585s-0.346,1.151-0.756,1.726
		c-0.551,0.846-1.512,1.727-2.883,2.643l2.883,3.452c0.047-0.118,0.082-0.217,0.105-0.299s0.047-0.188,0.07-0.317l0.105-0.387
		c0.117-0.411,0.346-0.743,0.686-0.995s0.715-0.379,1.125-0.379c0.504,0,0.935,0.182,1.292,0.546
		c0.357,0.364,0.536,0.811,0.536,1.339c0,0.071,0,0.147,0,0.229c0,0.083-0.023,0.17-0.07,0.264l-0.105,0.405
		c-0.141,0.505-0.302,0.992-0.483,1.462s-0.372,0.922-0.571,1.356l2.707,3.238c0.293,0.34,0.439,0.733,0.439,1.179
		c0,0.504-0.182,0.938-0.545,1.301s-0.797,0.545-1.301,0.545c-0.621,0-1.102-0.229-1.441-0.686l-1.969-2.338
		c-0.644,0.715-1.302,1.283-1.974,1.705c-0.673,0.422-1.304,0.741-1.895,0.958s-1.114,0.354-1.57,0.413s-0.789,0.088-0.999,0.088
		c-0.918,0-1.827-0.161-2.728-0.484c-0.9-0.322-1.703-0.771-2.409-1.346c-0.8-0.668-1.409-1.449-1.826-2.34
		C46.584,68.417,46.375,67.466,46.375,66.458z M50.084,66.458c0,1.034,0.434,1.85,1.3,2.449c0.433,0.34,0.886,0.569,1.36,0.687
		c0.474,0.118,0.881,0.176,1.221,0.176c0.116,0,0.329-0.018,0.639-0.053s0.669-0.147,1.078-0.335
		c0.841-0.387,1.605-1.039,2.295-1.955l-4.292-5.196c-0.48,0.271-0.938,0.538-1.37,0.802c-0.434,0.264-0.82,0.549-1.159,0.854
		C50.441,64.602,50.084,65.459,50.084,66.458z M52.931,54.515c0,0.458,0.154,0.963,0.464,1.515c0.309,0.552,0.668,1.068,1.076,1.55
		c0.315-0.188,0.621-0.385,0.919-0.59c0.298-0.206,0.562-0.423,0.796-0.652s0.429-0.493,0.587-0.793
		c0.157-0.299,0.236-0.631,0.236-0.995c0-0.552-0.222-1.004-0.665-1.356c-0.443-0.352-0.904-0.528-1.383-0.528
		c-0.502,0-0.966,0.182-1.392,0.546C53.144,53.576,52.931,54.01,52.931,54.515z"/>
	<path fill="#FAE48C" d="M4.197,106.271c-0.012-0.188-0.018-0.375-0.018-0.562c0.012-1.078,0.136-2.068,0.373-2.971
		c0.283-1.055,0.532-1.857,0.745-2.408c0.071-0.164,0.181-0.428,0.328-0.791s0.348-0.776,0.601-1.239
		c0.252-0.463,0.551-0.961,0.897-1.494c0.346-0.533,0.76-1.052,1.24-1.556c0.411-0.48,0.846-0.894,1.303-1.239
		c0.458-0.346,0.927-0.647,1.408-0.905c1.079-0.621,2.241-0.938,3.484-0.949c0.962,0,1.877,0.126,2.745,0.378
		s1.625,0.583,2.271,0.993s1.162,0.879,1.549,1.406c0.388,0.527,0.581,1.066,0.581,1.617v0.932c0,0.48-0.171,0.902-0.513,1.266
		s-0.754,0.545-1.236,0.545c-0.46,0-0.863-0.149-1.21-0.448c-0.348-0.299-0.521-0.688-0.521-1.169c0-0.316-0.311-0.674-0.93-1.072
		c-0.62-0.398-1.521-0.598-2.703-0.598c-0.409,0-0.787,0.067-1.132,0.202s-0.667,0.293-0.965,0.475
		c-0.299,0.182-0.562,0.387-0.79,0.615c-0.228,0.229-0.424,0.425-0.588,0.589c-0.479,0.527-0.93,1.116-1.351,1.767
		c-0.422,0.65-0.767,1.31-1.035,1.978c-0.211,0.562-0.41,1.242-0.598,2.039c-0.163,0.703-0.245,1.43-0.245,2.18
		c0,0.094,0.006,0.193,0.018,0.299c0.023,0.855,0.182,1.696,0.474,2.522s0.819,1.573,1.579,2.241v0.035
		c1.3,1.219,2.658,1.846,4.075,1.881l0.421-0.035h0.105c1.007-0.047,1.92-0.281,2.74-0.703c0.819-0.422,1.504-0.979,2.055-1.67
		l0.212-0.334c0.317-0.434,0.73-0.691,1.236-0.773c0.106-0.023,0.212-0.035,0.318-0.035c0.375,0,0.721,0.117,1.037,0.352
		c0.398,0.34,0.645,0.768,0.738,1.283c0.023,0.105,0.035,0.211,0.035,0.316c0,0.387-0.123,0.75-0.369,1.09l-0.211,0.369
		c-0.797,1.031-1.759,1.893-2.885,2.584c-0.692,0.41-1.443,0.729-2.253,0.958c-0.811,0.229-1.649,0.366-2.518,0.413h-0.493
		c-2.432,0-4.669-0.926-6.712-2.777c-1.175-1.102-2.032-2.338-2.572-3.709C4.437,108.984,4.197,107.689,4.197,106.271z"/>
	<path fill="#FAE48C" d="M26.539,107.52c0.07-1.174,0.333-2.298,0.788-3.372c0.456-1.075,1.081-2.028,1.876-2.862
		c0.794-0.869,1.673-1.532,2.637-1.991c0.964-0.457,1.966-0.687,3.006-0.687c0.917,0,1.796,0.168,2.637,0.502
		c0.841,0.335,1.597,0.843,2.267,1.523c0.917,0.893,1.594,1.955,2.028,3.188c0.353,0.986,0.529,2.031,0.529,3.135
		c0,0.269-0.012,0.538-0.035,0.807c-0.095,1.194-0.371,2.326-0.829,3.396c-0.459,1.07-1.07,2.021-1.834,2.852
		c-0.8,0.866-1.688,1.527-2.663,1.983c-0.976,0.457-1.993,0.685-3.051,0.685c-0.911,0-1.783-0.172-2.618-0.518
		c-0.835-0.345-1.585-0.856-2.251-1.534c-0.887-0.865-1.547-1.911-1.979-3.14c-0.351-1.005-0.525-2.074-0.525-3.209
		C26.521,108.03,26.527,107.778,26.539,107.52z M30.336,107.766c-0.012,0.142-0.012,0.282,0,0.424c0,0.729,0.1,1.423,0.3,2.081
		c0.246,0.775,0.61,1.41,1.092,1.904c0.599,0.623,1.321,0.935,2.167,0.935c0.505,0,1.016-0.132,1.532-0.396s0.992-0.661,1.428-1.19
		c0.457-0.529,0.818-1.144,1.083-1.843c0.264-0.699,0.42-1.42,0.467-2.16c0.012-0.118,0.018-0.235,0.018-0.354
		c-0.012-0.705-0.135-1.398-0.37-2.08c-0.281-0.8-0.681-1.47-1.197-2.011c-0.646-0.6-1.369-0.899-2.167-0.899
		c-1.058,0-2.003,0.529-2.837,1.587c-0.435,0.529-0.783,1.144-1.048,1.843C30.539,106.306,30.382,107.025,30.336,107.766z"/>
	<path fill="#FAE48C" d="M44.82,100.348c0-0.499,0.179-0.926,0.536-1.279c0.357-0.354,0.788-0.531,1.292-0.531h0.984
		c0.094-1.666,0.551-2.988,1.371-3.967c1.148-1.363,2.971-2.045,5.467-2.045h0.422h0.229c0.504,0,0.935,0.177,1.292,0.531
		c0.357,0.354,0.536,0.78,0.536,1.279s-0.179,0.929-0.536,1.288c-0.357,0.36-0.788,0.54-1.292,0.54h-0.158
		c-0.211,0-0.46,0.006-0.747,0.018s-0.562,0.047-0.826,0.105s-0.51,0.135-0.738,0.229s-0.413,0.217-0.554,0.369
		c-0.27,0.34-0.439,0.891-0.51,1.652h2.584c0.504,0,0.938,0.177,1.301,0.531c0.363,0.354,0.545,0.78,0.545,1.279
		s-0.182,0.929-0.545,1.288c-0.363,0.36-0.797,0.54-1.301,0.54h-2.76v12.546c0,0.529-0.188,0.981-0.562,1.357
		s-0.826,0.563-1.354,0.563s-0.976-0.185-1.345-0.555s-0.554-0.825-0.554-1.366v-12.546h-0.949c-0.504,0-0.935-0.18-1.292-0.54
		C44.999,101.276,44.82,100.847,44.82,100.348z"/>
	<path fill="#FAE48C" d="M58.021,100.348c0-0.499,0.179-0.926,0.536-1.279c0.357-0.354,0.788-0.531,1.292-0.531h0.984
		c0.094-1.666,0.551-2.988,1.371-3.967c1.148-1.363,2.971-2.045,5.467-2.045h0.422h0.229c0.504,0,0.935,0.177,1.292,0.531
		c0.357,0.354,0.536,0.78,0.536,1.279s-0.179,0.929-0.536,1.288c-0.357,0.36-0.788,0.54-1.292,0.54h-0.158
		c-0.211,0-0.46,0.006-0.747,0.018s-0.562,0.047-0.826,0.105s-0.51,0.135-0.738,0.229s-0.413,0.217-0.554,0.369
		c-0.27,0.34-0.439,0.891-0.51,1.652h2.584c0.504,0,0.938,0.177,1.301,0.531c0.363,0.354,0.545,0.78,0.545,1.279
		s-0.182,0.929-0.545,1.288c-0.363,0.36-0.797,0.54-1.301,0.54h-2.76v12.546c0,0.529-0.188,0.981-0.562,1.357
		c-0.375,0.376-0.826,0.563-1.354,0.563s-0.976-0.185-1.345-0.555s-0.554-0.825-0.554-1.366v-12.546h-0.949
		c-0.504,0-0.935-0.18-1.292-0.54C58.2,101.276,58.021,100.847,58.021,100.348z"/>
	<path fill="#FAE48C" d="M72.294,107.678c0-1.172,0.211-2.288,0.633-3.349s0.999-1.992,1.731-2.795s1.591-1.45,2.575-1.942
		s2.039-0.773,3.164-0.844c0.211-0.023,0.422-0.035,0.633-0.035c1.148,0,2.197,0.275,3.146,0.826
		c1.125,0.645,2.027,1.512,2.707,2.602c0.117,0.188,0.217,0.378,0.299,0.571s0.176,0.372,0.281,0.536
		c0.117,0.223,0.176,0.469,0.176,0.738c0,0.152-0.018,0.322-0.053,0.51c-0.105,0.492-0.41,0.867-0.914,1.125
		c-0.434,0.234-1.04,0.571-1.819,1.011s-1.626,0.911-2.54,1.415s-1.84,1.02-2.777,1.547s-1.775,0.99-2.514,1.389
		c0.387,0.48,0.826,0.891,1.318,1.23c0.773,0.527,1.652,0.791,2.637,0.791c1.371,0,2.561-0.527,3.568-1.582l0.721-0.756
		c0.34-0.34,0.756-0.51,1.248-0.51c0.504,0,0.938,0.182,1.301,0.545s0.545,0.785,0.545,1.266c0,0.434-0.146,0.826-0.439,1.178
		l-0.721,0.756c-0.82,0.891-1.77,1.576-2.848,2.057c-1.055,0.457-2.18,0.686-3.375,0.686s-2.323-0.234-3.384-0.703
		s-1.98-1.104-2.76-1.907s-1.397-1.749-1.854-2.839S72.294,108.932,72.294,107.678z M75.933,107.432
		c0.504-0.293,1.093-0.624,1.767-0.993s1.348-0.741,2.021-1.116s1.315-0.735,1.925-1.081s1.131-0.642,1.564-0.888
		c-0.621-0.621-1.342-0.955-2.162-1.002c-0.82,0.023-1.535,0.185-2.145,0.483s-1.131,0.688-1.564,1.169
		C76.472,104.988,76.003,106.131,75.933,107.432z"/>
	<path fill="#FAE48C" d="M91.947,107.678c0-1.172,0.211-2.288,0.633-3.349s0.999-1.992,1.731-2.795s1.591-1.45,2.575-1.942
		s2.039-0.773,3.164-0.844c0.211-0.023,0.422-0.035,0.633-0.035c1.148,0,2.197,0.275,3.146,0.826
		c1.125,0.645,2.027,1.512,2.707,2.602c0.117,0.188,0.217,0.378,0.299,0.571s0.176,0.372,0.281,0.536
		c0.117,0.223,0.176,0.469,0.176,0.738c0,0.152-0.018,0.322-0.053,0.51c-0.105,0.492-0.41,0.867-0.914,1.125
		c-0.434,0.234-1.04,0.571-1.819,1.011s-1.626,0.911-2.54,1.415s-1.84,1.02-2.777,1.547s-1.775,0.99-2.514,1.389
		c0.387,0.48,0.826,0.891,1.318,1.23c0.773,0.527,1.652,0.791,2.637,0.791c1.371,0,2.561-0.527,3.568-1.582l0.721-0.756
		c0.34-0.34,0.756-0.51,1.248-0.51c0.504,0,0.938,0.182,1.301,0.545s0.545,0.785,0.545,1.266c0,0.434-0.146,0.826-0.439,1.178
		l-0.721,0.756c-0.82,0.891-1.77,1.576-2.848,2.057c-1.055,0.457-2.18,0.686-3.375,0.686s-2.323-0.234-3.384-0.703
		s-1.98-1.104-2.76-1.907s-1.397-1.749-1.854-2.839S91.947,108.932,91.947,107.678z M95.586,107.432
		c0.504-0.293,1.093-0.624,1.767-0.993s1.348-0.741,2.021-1.116s1.315-0.735,1.925-1.081s1.131-0.642,1.564-0.888
		c-0.621-0.621-1.342-0.955-2.162-1.002c-0.82,0.023-1.535,0.185-2.145,0.483s-1.131,0.688-1.564,1.169
		C96.125,104.988,95.656,106.131,95.586,107.432z"/>
</g>
</svg>
