<?xml version="1.0" encoding="utf-8"?>
<!-- Generator: Adobe Illustrator 17.0.2, SVG Export Plug-In . SVG Version: 6.00 Build 0)  -->
<!DOCTYPE svg PUBLIC "-//W3C//DTD SVG 1.1//EN" "http://www.w3.org/Graphics/SVG/1.1/DTD/svg11.dtd">
<svg version="1.1" id="Layer_1" xmlns="http://www.w3.org/2000/svg" xmlns:xlink="http://www.w3.org/1999/xlink" x="0px" y="0px"
	 width="91.766px" height="131.853px" viewBox="0 0 91.766 131.853" enable-background="new 0 0 91.766 131.853"
	 xml:space="preserve">
<g>
	<path fill="#94685D" d="M30.922,29.794c-0.37-2.066-1.523-2.264-2.561-0.44c0,0-6.155,10.813-9.725,17.903
		c-4.16,8.262-7.955,16.731-11.075,25.443c-4.85,13.541-12.523,36.511-3.082,49.752c5.161,7.237,17.398,9.699,25.773,9.372
		c7.608-0.297,17.733-1.866,23.025-7.923c8.091-9.264,4.003-23.607,0.482-33.889C47.375,71.367,35.968,55.234,32.02,35.668
		C31.611,33.639,30.922,29.794,30.922,29.794z"/>
</g>
<g>
	<path fill="#94685D" d="M74.668,1.067c-0.234-1.306-0.963-1.431-1.619-0.278c0,0-3.89,6.835-6.147,11.316
		c-2.63,5.222-5.028,10.576-7,16.082c-3.065,8.559-7.916,23.078-1.948,31.448c3.262,4.575,10.997,6.13,16.291,5.924
		c4.809-0.188,11.209-1.179,14.554-5.008c5.114-5.856,2.53-14.922,0.305-21.421c-4.035-11.785-11.245-21.983-13.741-34.35
		C75.103,3.498,74.668,1.067,74.668,1.067z"/>
</g>
</svg>
