<?xml version="1.0" encoding="utf-8"?>
<!-- Generator: Adobe Illustrator 17.0.2, SVG Export Plug-In . SVG Version: 6.00 Build 0)  -->
<!DOCTYPE svg PUBLIC "-//W3C//DTD SVG 1.1//EN" "http://www.w3.org/Graphics/SVG/1.1/DTD/svg11.dtd">
<svg version="1.1" id="Layer_1" xmlns="http://www.w3.org/2000/svg" xmlns:xlink="http://www.w3.org/1999/xlink" x="0px" y="0px"
	 width="208.806px" height="149.998px" viewBox="0 0 208.806 149.998" enable-background="new 0 0 208.806 149.998"
	 xml:space="preserve">
<circle fill="none" stroke="#FF6970" stroke-width="14.755" stroke-linecap="round" stroke-miterlimit="10" cx="169.032" cy="70.874" r="32.397"/>
<path fill="#FF6970" stroke="#FF6970" stroke-width="2.7799" stroke-linecap="round" stroke-miterlimit="10" d="M168.531,19.622
	v86.738c0,23.328-21.229,42.248-47.405,42.248H48.795c-26.176,0-47.405-18.919-47.405-42.248V19.622
	c0-1.805,1.646-3.272,3.672-3.272h159.797C166.885,16.35,168.531,17.817,168.531,19.622z"/>
<g>
	<circle fill="#F8CC97" stroke="#F8CC97" stroke-width="0.329" stroke-miterlimit="10" cx="86.848" cy="90.463" r="36.617"/>
	<g>
		<path fill="#FF95A2" stroke="#FF95A2" stroke-width="0.3266" stroke-miterlimit="10" d="M112.154,102.117
			c0.265,5.082-1.124,9.443-4.315,12.248c-2.799,2.456-6.608,3.384-10.873,2.962c-2.923,3.132-6.395,4.945-10.119,4.945
			c-3.737,0-7.218-1.826-10.145-4.978c-4.471,0.461-8.443-0.516-11.298-3.122c-3.119-2.845-4.426-7.195-4.089-12.229
			c-3.942-3.145-6.278-7.045-6.278-11.268c0-4.311,2.433-8.286,6.526-11.461c-0.359-5.252,1.016-9.776,4.295-12.653
			c2.799-2.456,6.608-3.384,10.873-2.962c2.923-3.132,6.392-4.945,10.115-4.945c3.887,0,7.499,1.976,10.501,5.366
			c4.328-0.372,8.162,0.624,10.942,3.158c3.119,2.845,4.426,7.199,4.089,12.229c3.942,3.145,6.278,7.045,6.278,11.268
			C118.657,94.98,116.234,98.945,112.154,102.117z"/>
		
			<line fill="none" stroke="#FF6970" stroke-width="1.2289" stroke-linecap="round" stroke-miterlimit="10" x1="61.105" y1="87.274" x2="67.483" y2="88.16"/>
		
			<line fill="none" stroke="#FF6970" stroke-width="1.2289" stroke-linecap="round" stroke-miterlimit="10" x1="100.513" y1="69.327" x2="102.343" y2="75.5"/>
		
			<line fill="none" stroke="#FF6970" stroke-width="1.2289" stroke-linecap="round" stroke-miterlimit="10" x1="89.616" y1="109.402" x2="94.011" y2="104.696"/>
		
			<line fill="none" stroke="#FF6970" stroke-width="1.2289" stroke-linecap="round" stroke-miterlimit="10" x1="108.472" y1="94.58" x2="107.97" y2="88.16"/>
		
			<line fill="none" stroke="#FAE48C" stroke-width="1.2289" stroke-linecap="round" stroke-miterlimit="10" x1="70.617" y1="71.971" x2="76.995" y2="72.856"/>
		
			<line fill="none" stroke="#FAE48C" stroke-width="1.2289" stroke-linecap="round" stroke-miterlimit="10" x1="74.565" y1="110.178" x2="73.047" y2="103.92"/>
		
			<line fill="none" stroke="#FAE48C" stroke-width="1.2289" stroke-linecap="round" stroke-miterlimit="10" x1="101.428" y1="109.207" x2="106.207" y2="104.891"/>
		
			<line fill="none" stroke="#FAE48C" stroke-width="1.2289" stroke-linecap="round" stroke-miterlimit="10" x1="86.672" y1="67.735" x2="92.56" y2="65.127"/>
		
			<line fill="none" stroke="#B3E5D4" stroke-width="1.2289" stroke-linecap="round" stroke-miterlimit="10" x1="81.547" y1="110.178" x2="83.377" y2="116.352"/>
		
			<line fill="none" stroke="#B3E5D4" stroke-width="1.2289" stroke-linecap="round" stroke-miterlimit="10" x1="73.143" y1="91.37" x2="68.092" y2="95.364"/>
		
			<line fill="none" stroke="#B3E5D4" stroke-width="1.2289" stroke-linecap="round" stroke-miterlimit="10" x1="90.633" y1="72.505" x2="92.994" y2="78.496"/>
		
			<line fill="none" stroke="#B3E5D4" stroke-width="1.2289" stroke-linecap="round" stroke-miterlimit="10" x1="69.92" y1="81.377" x2="76.174" y2="79.843"/>
		
			<line fill="none" stroke="#B3E5D4" stroke-width="1.2289" stroke-linecap="round" stroke-miterlimit="10" x1="98.212" y1="95.509" x2="104.645" y2="95.219"/>
		
			<line fill="none" stroke="#FAE48C" stroke-width="1.2289" stroke-linecap="round" stroke-miterlimit="10" x1="99.4" y1="83.985" x2="105.287" y2="81.377"/>
	</g>
	<circle fill="#FF6970" cx="86.848" cy="90.463" r="9.011"/>
</g>
<ellipse fill="#FF6970" stroke="#FF6970" stroke-width="6" stroke-miterlimit="10" cx="85.125" cy="18.175" rx="81.735" ry="15.175"/>
<ellipse fill="#94685D" cx="85.616" cy="17.71" rx="81.735" ry="15.175"/>
</svg>
