<?xml version="1.0" encoding="utf-8"?>
<!-- Generator: Adobe Illustrator 17.0.2, SVG Export Plug-In . SVG Version: 6.00 Build 0)  -->
<!DOCTYPE svg PUBLIC "-//W3C//DTD SVG 1.1//EN" "http://www.w3.org/Graphics/SVG/1.1/DTD/svg11.dtd">
<svg version="1.1" id="Layer_1" xmlns="http://www.w3.org/2000/svg" xmlns:xlink="http://www.w3.org/1999/xlink" x="0px" y="0px"
	 width="126.773px" height="40.945px" viewBox="-289.293 -65.413 126.773 40.945"
	 enable-background="new -289.293 -65.413 126.773 40.945" xml:space="preserve">
<g>
	<path fill="#FF6970" d="M-289.293-34.897v-27.492c0-0.703,0.242-1.305,0.727-1.805s1.062-0.75,1.734-0.75h18.141
		c0.672,0,1.246,0.25,1.723,0.75s0.715,1.102,0.715,1.805c0,0.734-0.238,1.348-0.715,1.84s-1.051,0.738-1.723,0.738h-15.656v8.133
		h13.594c0.672,0,1.246,0.246,1.723,0.738s0.715,1.105,0.715,1.84c0,0.703-0.238,1.305-0.715,1.805s-1.051,0.75-1.723,0.75h-13.594
		v9.117h15.562c0.672,0,1.254,0.246,1.746,0.738s0.738,1.09,0.738,1.793c0,0.734-0.246,1.352-0.738,1.852s-1.074,0.75-1.746,0.75
		h-18.047c-0.672,0-1.25-0.246-1.734-0.738S-289.293-34.147-289.293-34.897z"/>
	<path fill="#FF6970" d="M-260.254-34.85v-18v-1.43c0-0.703,0.25-1.305,0.75-1.805s1.102-0.75,1.805-0.75s1.301,0.248,1.793,0.744
		c0.492,0.496,0.738,1.092,0.738,1.79v1.487c0.125-0.155,0.246-0.298,0.363-0.43s0.254-0.275,0.41-0.43
		c0.891-0.882,1.883-1.563,2.977-2.043s2.281-0.72,3.562-0.72c1.776,0,3.239,0.476,4.387,1.428c1.1,0.89,1.887,2.264,2.358,4.122
		c0.361,1.342,0.574,2.966,0.637,4.87c0.063,1.905,0.095,4.293,0.095,7.166v2.655c0,0.454,0.016,0.901,0.047,1.339
		c0,0.705-0.249,1.308-0.745,1.809c-0.497,0.501-1.092,0.752-1.786,0.752c-0.71,0-1.313-0.247-1.81-0.74
		c-0.497-0.493-0.745-1.1-0.745-1.821c-0.032-0.485-0.047-0.963-0.047-1.433v-2.49c0-2.35-0.023-4.48-0.07-6.391
		c-0.047-1.911-0.203-3.422-0.469-4.535c-0.219-0.83-0.457-1.335-0.715-1.515c-0.258-0.181-0.637-0.271-1.137-0.271
		c-0.312,0-0.664,0.039-1.055,0.118c-0.391,0.078-0.801,0.27-1.23,0.576c-0.43,0.305-0.895,0.748-1.395,1.327
		c-0.5,0.58-1.008,1.347-1.523,2.303c-0.641,1.222-1.152,2.588-1.535,4.1c-0.383,1.512-0.574,2.972-0.574,4.382l-0.047,3.83
		c0,0.705-0.246,1.308-0.738,1.809c-0.492,0.501-1.09,0.752-1.793,0.752s-1.297-0.246-1.781-0.738S-260.254-34.131-260.254-34.85z"
		/>
	<path fill="#FF6970" d="M-237.59-33.896c0.188-0.673,0.586-1.173,1.195-1.502c0.375-0.219,0.766-0.329,1.172-0.329
		c0.25,0,0.5,0.039,0.75,0.117c0.734,0.188,1.258,0.634,1.57,1.338c0.219,0.36,0.414,0.712,0.586,1.057
		c0.156,0.282,0.309,0.563,0.457,0.845c0.148,0.281,0.285,0.501,0.41,0.658c0.453,0.642,0.82,1.056,1.102,1.244
		c0.281,0.188,0.469,0.282,0.562,0.282c0.219,0,0.414-0.078,0.586-0.235c0.156-0.157,0.336-0.508,0.539-1.056
		c0.156-0.548,0.25-1.072,0.281-1.573s0.047-0.83,0.047-0.986c0-0.094-0.008-0.446-0.023-1.057s-0.031-1.389-0.047-2.336
		c-0.016-0.947-0.031-2.004-0.047-3.17s-0.023-2.36-0.023-3.581c-0.062-2.849-0.109-6.034-0.141-9.556
		c0-0.736,0.246-1.346,0.738-1.832s1.09-0.728,1.793-0.728s1.305,0.239,1.805,0.716s0.75,1.092,0.75,1.843
		c0.031,3.459,0.078,6.566,0.141,9.321c0,1.189,0.008,2.359,0.023,3.51s0.031,2.191,0.047,3.123c0.016,0.932,0.031,1.718,0.047,2.36
		s0.023,1.025,0.023,1.15c0,0.389-0.039,1.011-0.117,1.867s-0.297,1.75-0.656,2.684c-0.516,1.4-1.266,2.481-2.25,3.243
		s-2.156,1.144-3.516,1.144c-1.25,0-2.445-0.428-3.586-1.282c-0.453-0.311-0.879-0.685-1.277-1.119
		c-0.398-0.436-0.793-0.925-1.184-1.469c-0.422-0.575-0.789-1.182-1.102-1.818c-0.188-0.357-0.359-0.692-0.516-1.003
		c-0.156-0.388-0.234-0.777-0.234-1.166C-237.683-33.426-237.652-33.661-237.59-33.896z M-228.519-61.241l0.141-1.641
		c0-0.703,0.238-1.301,0.715-1.793s1.066-0.738,1.77-0.738c0.734,0,1.344,0.246,1.828,0.738s0.727,1.09,0.727,1.793l-0.094,1.641
		c0,0.703-0.242,1.305-0.727,1.805s-1.094,0.75-1.828,0.75c-0.703,0-1.301-0.25-1.793-0.75S-228.519-60.538-228.519-61.241z"/>
	<path fill="#FF6970" d="M-217.691-44.459c0.093-1.565,0.444-3.064,1.051-4.497c0.608-1.433,1.441-2.705,2.5-3.816
		c1.059-1.159,2.231-2.043,3.517-2.654c1.285-0.61,2.621-0.916,4.007-0.916c1.223,0,2.395,0.224,3.516,0.669
		s2.128,1.123,3.022,2.031c1.223,1.19,2.125,2.606,2.705,4.25c0.47,1.315,0.706,2.708,0.706,4.18c0,0.359-0.016,0.718-0.047,1.076
		c-0.125,1.592-0.494,3.101-1.105,4.528c-0.612,1.428-1.427,2.695-2.446,3.802c-1.066,1.155-2.25,2.036-3.55,2.645
		c-1.301,0.609-2.657,0.913-4.068,0.913c-1.214,0-2.378-0.229-3.491-0.689s-2.113-1.142-3-2.046
		c-1.183-1.154-2.062-2.548-2.638-4.186c-0.467-1.34-0.701-2.767-0.701-4.279C-217.715-43.778-217.707-44.115-217.691-44.459z
		 M-212.629-44.131c-0.016,0.188-0.016,0.376,0,0.564c0,0.972,0.133,1.897,0.399,2.775c0.329,1.035,0.814,1.881,1.456,2.54
		c0.798,0.831,1.762,1.246,2.889,1.246c0.673,0,1.354-0.176,2.043-0.529c0.689-0.353,1.323-0.882,1.903-1.587
		c0.61-0.706,1.092-1.524,1.444-2.457s0.56-1.893,0.623-2.88c0.016-0.157,0.023-0.314,0.023-0.47
		c-0.016-0.94-0.18-1.865-0.493-2.774c-0.376-1.066-0.908-1.959-1.597-2.681c-0.861-0.799-1.825-1.199-2.889-1.199
		c-1.409,0-2.67,0.706-3.782,2.116c-0.58,0.706-1.045,1.524-1.397,2.457S-212.566-45.118-212.629-44.131z"/>
	<path fill="#FF6970" d="M-193.176-54.585c0.219-0.656,0.648-1.148,1.289-1.477c0.359-0.156,0.719-0.234,1.078-0.234
		c0.297,0,0.586,0.047,0.867,0.141c0.656,0.219,1.148,0.648,1.477,1.289l6.281,12.633l5.812-12.516
		c0.25-0.641,0.703-1.094,1.359-1.359c0.328-0.125,0.656-0.188,0.984-0.188s0.648,0.062,0.961,0.188
		c0.641,0.281,1.086,0.75,1.336,1.406c0.141,0.344,0.211,0.68,0.211,1.008s-0.062,0.648-0.188,0.961l-12.398,26.766
		c-0.281,0.641-0.75,1.078-1.406,1.312c-0.297,0.125-0.602,0.188-0.914,0.188c-0.344,0-0.688-0.078-1.031-0.234
		c-0.641-0.281-1.086-0.75-1.336-1.406c-0.125-0.312-0.188-0.625-0.188-0.938c0-0.344,0.078-0.688,0.234-1.031l3.82-8.25
		l-8.109-16.312c-0.188-0.375-0.281-0.758-0.281-1.148C-193.316-54.053-193.269-54.319-193.176-54.585z"/>
	<path fill="#FF6970" d="M-167.887-35.031c0.055-0.723,0.326-1.331,0.812-1.827c0.513-0.552,1.109-0.828,1.789-0.828
		c0.843,0,1.512,0.262,2.005,0.786c0.555,0.581,0.777,1.274,0.668,2.081v0.043c-0.096,0.666-0.406,1.231-0.931,1.699
		c-0.589,0.552-1.289,0.828-2.1,0.828c-0.612,0-1.156-0.248-1.632-0.743C-167.792-33.572-167.996-34.252-167.887-35.031z
		 M-167.887-43.813l0.096-18.522c0-0.75,0.254-1.38,0.764-1.891c0.509-0.51,1.137-0.766,1.885-0.766
		c0.747,0,1.371,0.255,1.872,0.766c0.5,0.511,0.751,1.141,0.751,1.891v18.522c0,0.75-0.259,1.388-0.775,1.915
		c-0.517,0.527-1.148,0.79-1.896,0.79c-0.748,0-1.384-0.263-1.909-0.79C-167.624-42.424-167.887-43.063-167.887-43.813z"/>
</g>
</svg>
